<?xml version="1.0" encoding="us-ascii" standalone="no"?><svg xmlns="http://www.w3.org/2000/svg" xmlns:xlink="http://www.w3.org/1999/xlink" contentStyleType="text/css" height="784px" preserveAspectRatio="none" style="width:818px;height:784px;background:#FFFFFF;" version="1.1" viewBox="0 0 818 784" width="818px" zoomAndPan="magnify"><defs/><g><!--class Aisha--><g id="elem_Aisha"><rect codeLine="4" fill="#F1F1F1" height="327.3164" id="Aisha" rx="2.5" ry="2.5" style="stroke:#181818;stroke-width:0.5;" width="247" x="564" y="450"/><ellipse cx="665.75" cy="466" fill="#ADD1B2" rx="11" ry="11" style="stroke:#181818;stroke-width:1.0;"/><path d="M668.5156,461.875 Q668.6719,461.6563 668.8594,461.5469 Q669.0469,461.4375 669.2656,461.4375 Q669.6406,461.4375 669.875,461.7031 Q670.1094,461.9531 670.1094,462.5625 L670.1094,464.0156 Q670.1094,464.625 669.875,464.8906 Q669.6406,465.1563 669.2656,465.1563 Q668.9219,465.1563 668.7188,464.9531 Q668.5156,464.7656 668.4063,464.25 Q668.3594,463.8906 668.1719,463.7031 Q667.8438,463.3281 667.2344,463.1094 Q666.625,462.8906 666,462.8906 Q665.2344,462.8906 664.5938,463.2188 Q663.9688,463.5469 663.4688,464.2969 Q662.9844,465.0469 662.9844,466.0781 L662.9844,467.1719 Q662.9844,468.4063 663.875,469.2344 Q664.7656,470.0469 666.3594,470.0469 Q667.2969,470.0469 667.9531,469.7969 Q668.3438,469.6406 668.7656,469.2031 Q669.0313,468.9375 669.1719,468.8594 Q669.3281,468.7813 669.5313,468.7813 Q669.8594,468.7813 670.1094,469.0469 Q670.375,469.2969 670.375,469.6406 Q670.375,469.9844 670.0313,470.3906 Q669.5313,470.9688 668.7344,471.2969 Q667.6563,471.75 666.3594,471.75 Q664.8438,471.75 663.6406,471.125 Q662.6563,470.625 661.9688,469.5625 Q661.2813,468.4844 661.2813,467.2031 L661.2813,466.0469 Q661.2813,464.7188 661.8906,463.5781 Q662.5156,462.4219 663.6094,461.8125 Q664.7031,461.1875 665.9375,461.1875 Q666.6719,461.1875 667.3125,461.3594 Q667.9688,461.5156 668.5156,461.875 Z " fill="#000000"/><text fill="#000000" font-family="sans-serif" font-size="14" lengthAdjust="spacing" textLength="35" x="686.25" y="471.7969">Aisha</text><line style="stroke:#181818;stroke-width:0.5;" x1="565" x2="810" y1="482" y2="482"/><ellipse cx="575" cy="496.8105" fill="none" rx="3" ry="3" style="stroke:#038048;stroke-width:1.0;"/><text fill="#000000" font-family="sans-serif" font-size="14" lengthAdjust="spacing" textLength="86" x="584" y="501.1074">String pirarrin</text><rect fill="none" height="6" style="stroke:#C82930;stroke-width:1.0;" width="6" x="572" y="512.4316"/><text fill="#000000" font-family="sans-serif" font-size="14" lengthAdjust="spacing" textLength="120" x="584" y="519.7285">String[] abecedario</text><rect fill="none" height="6" style="stroke:#C82930;stroke-width:1.0;" width="6" x="572" y="531.0527"/><text fill="#000000" font-family="sans-serif" font-size="14" lengthAdjust="spacing" textLength="147" x="584" y="538.3496">boolean partidainiciada</text><rect fill="none" height="6" style="stroke:#C82930;stroke-width:1.0;" width="6" x="572" y="549.6738"/><text fill="#000000" font-family="sans-serif" font-size="14" lengthAdjust="spacing" textLength="162" x="584" y="556.9707">boolean partidaterminada</text><line style="stroke:#181818;stroke-width:0.5;" x1="565" x2="810" y1="564.4844" y2="564.4844"/><ellipse cx="575" cy="579.2949" fill="#84BE84" rx="3" ry="3" style="stroke:#038048;stroke-width:1.0;"/><text fill="#000000" font-family="sans-serif" font-size="14" lengthAdjust="spacing" textLength="45" x="584" y="583.5918">Aisha()</text><ellipse cx="575" cy="597.916" fill="#84BE84" rx="3" ry="3" style="stroke:#038048;stroke-width:1.0;"/><text fill="#000000" font-family="sans-serif" font-size="14" lengthAdjust="spacing" textLength="221" x="584" y="602.2129">setAbecedario(String[] abecedario)</text><ellipse cx="575" cy="616.5371" fill="#84BE84" rx="3" ry="3" style="stroke:#038048;stroke-width:1.0;"/><text fill="#000000" font-family="sans-serif" font-size="14" lengthAdjust="spacing" textLength="102" x="584" y="620.834">getAbecedario()</text><ellipse cx="575" cy="635.1582" fill="#84BE84" rx="3" ry="3" style="stroke:#038048;stroke-width:1.0;"/><text fill="#000000" font-family="sans-serif" font-size="14" lengthAdjust="spacing" textLength="113" x="584" y="639.4551">isPartidainiciada()</text><ellipse cx="575" cy="653.7793" fill="#84BE84" rx="3" ry="3" style="stroke:#038048;stroke-width:1.0;"/><text fill="#000000" font-family="sans-serif" font-size="14" lengthAdjust="spacing" textLength="120" x="584" y="658.0762">pasaNino(Nino nin)</text><ellipse cx="575" cy="672.4004" fill="#84BE84" rx="3" ry="3" style="stroke:#038048;stroke-width:1.0;"/><text fill="#000000" font-family="sans-serif" font-size="14" lengthAdjust="spacing" textLength="103" x="584" y="676.6973">escribePizarrin()</text><ellipse cx="575" cy="691.0215" fill="#84BE84" rx="3" ry="3" style="stroke:#038048;stroke-width:1.0;"/><text fill="#000000" font-family="sans-serif" font-size="14" lengthAdjust="spacing" textLength="122" x="584" y="695.3184">entraNino(Nino nin)</text><ellipse cx="575" cy="709.6426" fill="#84BE84" rx="3" ry="3" style="stroke:#038048;stroke-width:1.0;"/><text fill="#000000" font-family="sans-serif" font-size="14" lengthAdjust="spacing" textLength="112" x="584" y="713.9395">pasapizarraNino()</text><ellipse cx="575" cy="728.2637" fill="#84BE84" rx="3" ry="3" style="stroke:#038048;stroke-width:1.0;"/><text fill="#000000" font-family="sans-serif" font-size="14" lengthAdjust="spacing" textLength="217" x="584" y="732.5605">setPartidaTerminada(boolean res)</text><ellipse cx="575" cy="746.8848" fill="#84BE84" rx="3" ry="3" style="stroke:#038048;stroke-width:1.0;"/><text fill="#000000" font-family="sans-serif" font-size="14" lengthAdjust="spacing" textLength="143" x="584" y="751.1816">getPartidaTerminada()</text><ellipse cx="575" cy="765.5059" fill="#84BE84" rx="3" ry="3" style="stroke:#038048;stroke-width:1.0;"/><text fill="#000000" font-family="sans-serif" font-size="14" lengthAdjust="spacing" textLength="72" x="584" y="769.8027">vaciaCola()</text></g><!--class Monitora--><g id="elem_Monitora"><rect codeLine="45" fill="#F1F1F1" height="215.5898" id="Monitora" rx="2.5" ry="2.5" style="stroke:#181818;stroke-width:0.5;" width="194" x="590.5" y="90.5"/><ellipse cx="655.75" cy="106.5" fill="#ADD1B2" rx="11" ry="11" style="stroke:#181818;stroke-width:1.0;"/><path d="M658.5156,102.375 Q658.6719,102.1563 658.8594,102.0469 Q659.0469,101.9375 659.2656,101.9375 Q659.6406,101.9375 659.875,102.2031 Q660.1094,102.4531 660.1094,103.0625 L660.1094,104.5156 Q660.1094,105.125 659.875,105.3906 Q659.6406,105.6563 659.2656,105.6563 Q658.9219,105.6563 658.7188,105.4531 Q658.5156,105.2656 658.4063,104.75 Q658.3594,104.3906 658.1719,104.2031 Q657.8438,103.8281 657.2344,103.6094 Q656.625,103.3906 656,103.3906 Q655.2344,103.3906 654.5938,103.7188 Q653.9688,104.0469 653.4688,104.7969 Q652.9844,105.5469 652.9844,106.5781 L652.9844,107.6719 Q652.9844,108.9063 653.875,109.7344 Q654.7656,110.5469 656.3594,110.5469 Q657.2969,110.5469 657.9531,110.2969 Q658.3438,110.1406 658.7656,109.7031 Q659.0313,109.4375 659.1719,109.3594 Q659.3281,109.2813 659.5313,109.2813 Q659.8594,109.2813 660.1094,109.5469 Q660.375,109.7969 660.375,110.1406 Q660.375,110.4844 660.0313,110.8906 Q659.5313,111.4688 658.7344,111.7969 Q657.6563,112.25 656.3594,112.25 Q654.8438,112.25 653.6406,111.625 Q652.6563,111.125 651.9688,110.0625 Q651.2813,108.9844 651.2813,107.7031 L651.2813,106.5469 Q651.2813,105.2188 651.8906,104.0781 Q652.5156,102.9219 653.6094,102.3125 Q654.7031,101.6875 655.9375,101.6875 Q656.6719,101.6875 657.3125,101.8594 Q657.9688,102.0156 658.5156,102.375 Z " fill="#000000"/><text fill="#000000" font-family="sans-serif" font-size="14" lengthAdjust="spacing" textLength="55" x="676.25" y="112.2969">Monitora</text><line style="stroke:#181818;stroke-width:0.5;" x1="591.5" x2="783.5" y1="122.5" y2="122.5"/><ellipse cx="601.5" cy="137.3105" fill="none" rx="3" ry="3" style="stroke:#038048;stroke-width:1.0;"/><text fill="#000000" font-family="sans-serif" font-size="14" lengthAdjust="spacing" textLength="104" x="610.5" y="141.6074">List&lt;Nino&gt; ninos</text><ellipse cx="601.5" cy="155.9316" fill="none" rx="3" ry="3" style="stroke:#038048;stroke-width:1.0;"/><text fill="#000000" font-family="sans-serif" font-size="14" lengthAdjust="spacing" textLength="89" x="610.5" y="160.2285">String nombre</text><line style="stroke:#181818;stroke-width:0.5;" x1="591.5" x2="783.5" y1="167.7422" y2="167.7422"/><ellipse cx="601.5" cy="182.5527" fill="#84BE84" rx="3" ry="3" style="stroke:#038048;stroke-width:1.0;"/><text fill="#000000" font-family="sans-serif" font-size="14" lengthAdjust="spacing" textLength="146" x="610.5" y="186.8496">Monitora(String nombr)</text><ellipse cx="601.5" cy="201.1738" fill="#84BE84" rx="3" ry="3" style="stroke:#038048;stroke-width:1.0;"/><text fill="#000000" font-family="sans-serif" font-size="14" lengthAdjust="spacing" textLength="168" x="610.5" y="205.4707">setNinos(List&lt;Nino&gt; ninos)</text><ellipse cx="601.5" cy="219.7949" fill="#84BE84" rx="3" ry="3" style="stroke:#038048;stroke-width:1.0;"/><text fill="#000000" font-family="sans-serif" font-size="14" lengthAdjust="spacing" textLength="65" x="610.5" y="224.0918">getNinos()</text><ellipse cx="601.5" cy="238.416" fill="#84BE84" rx="3" ry="3" style="stroke:#038048;stroke-width:1.0;"/><text fill="#000000" font-family="sans-serif" font-size="14" lengthAdjust="spacing" textLength="79" x="610.5" y="242.7129">getNombre()</text><ellipse cx="601.5" cy="257.0371" fill="#84BE84" rx="3" ry="3" style="stroke:#038048;stroke-width:1.0;"/><text fill="#000000" font-family="sans-serif" font-size="14" lengthAdjust="spacing" textLength="167" x="610.5" y="261.334">setNombre(String nombre)</text><ellipse cx="601.5" cy="275.6582" fill="#84BE84" rx="3" ry="3" style="stroke:#038048;stroke-width:1.0;"/><text fill="#000000" font-family="sans-serif" font-size="14" lengthAdjust="spacing" textLength="122" x="610.5" y="279.9551">entraNino(Nino nin)</text><ellipse cx="601.5" cy="294.2793" fill="#84BE84" rx="3" ry="3" style="stroke:#038048;stroke-width:1.0;"/><text fill="#000000" font-family="sans-serif" font-size="14" lengthAdjust="spacing" textLength="75" x="610.5" y="298.5762">dameLista()</text></g><!--class Inicio--><g id="elem_Inicio"><rect codeLine="22" fill="#F1F1F1" height="66.6211" id="Inicio" rx="2.5" ry="2.5" style="stroke:#181818;stroke-width:0.5;" width="143" x="90" y="165"/><ellipse cx="141.25" cy="181" fill="#ADD1B2" rx="11" ry="11" style="stroke:#181818;stroke-width:1.0;"/><path d="M144.0156,176.875 Q144.1719,176.6563 144.3594,176.5469 Q144.5469,176.4375 144.7656,176.4375 Q145.1406,176.4375 145.375,176.7031 Q145.6094,176.9531 145.6094,177.5625 L145.6094,179.0156 Q145.6094,179.625 145.375,179.8906 Q145.1406,180.1563 144.7656,180.1563 Q144.4219,180.1563 144.2188,179.9531 Q144.0156,179.7656 143.9063,179.25 Q143.8594,178.8906 143.6719,178.7031 Q143.3438,178.3281 142.7344,178.1094 Q142.125,177.8906 141.5,177.8906 Q140.7344,177.8906 140.0938,178.2188 Q139.4688,178.5469 138.9688,179.2969 Q138.4844,180.0469 138.4844,181.0781 L138.4844,182.1719 Q138.4844,183.4063 139.375,184.2344 Q140.2656,185.0469 141.8594,185.0469 Q142.7969,185.0469 143.4531,184.7969 Q143.8438,184.6406 144.2656,184.2031 Q144.5313,183.9375 144.6719,183.8594 Q144.8281,183.7813 145.0313,183.7813 Q145.3594,183.7813 145.6094,184.0469 Q145.875,184.2969 145.875,184.6406 Q145.875,184.9844 145.5313,185.3906 Q145.0313,185.9688 144.2344,186.2969 Q143.1563,186.75 141.8594,186.75 Q140.3438,186.75 139.1406,186.125 Q138.1563,185.625 137.4688,184.5625 Q136.7813,183.4844 136.7813,182.2031 L136.7813,181.0469 Q136.7813,179.7188 137.3906,178.5781 Q138.0156,177.4219 139.1094,176.8125 Q140.2031,176.1875 141.4375,176.1875 Q142.1719,176.1875 142.8125,176.3594 Q143.4688,176.5156 144.0156,176.875 Z " fill="#000000"/><text fill="#000000" font-family="sans-serif" font-size="14" lengthAdjust="spacing" textLength="32" x="161.75" y="186.7969">Inicio</text><line style="stroke:#181818;stroke-width:0.5;" x1="91" x2="232" y1="197" y2="197"/><line style="stroke:#181818;stroke-width:0.5;" x1="91" x2="232" y1="205" y2="205"/><ellipse cx="101" cy="219.8105" fill="#84BE84" rx="3" ry="3" style="stroke:#038048;stroke-width:1.0;"/><text fill="#000000" font-family="sans-serif" font-size="14" lengthAdjust="spacing" textLength="117" x="110" y="224.1074">main(String[] args)</text></g><!--class Nino--><g id="elem_Nino"><rect codeLine="25" fill="#F1F1F1" height="383.1797" id="Nino" rx="2.5" ry="2.5" style="stroke:#181818;stroke-width:0.5;" width="287" x="268" y="7"/><ellipse cx="393.25" cy="23" fill="#ADD1B2" rx="11" ry="11" style="stroke:#181818;stroke-width:1.0;"/><path d="M396.0156,18.875 Q396.1719,18.6563 396.3594,18.5469 Q396.5469,18.4375 396.7656,18.4375 Q397.1406,18.4375 397.375,18.7031 Q397.6094,18.9531 397.6094,19.5625 L397.6094,21.0156 Q397.6094,21.625 397.375,21.8906 Q397.1406,22.1563 396.7656,22.1563 Q396.4219,22.1563 396.2188,21.9531 Q396.0156,21.7656 395.9063,21.25 Q395.8594,20.8906 395.6719,20.7031 Q395.3438,20.3281 394.7344,20.1094 Q394.125,19.8906 393.5,19.8906 Q392.7344,19.8906 392.0938,20.2188 Q391.4688,20.5469 390.9688,21.2969 Q390.4844,22.0469 390.4844,23.0781 L390.4844,24.1719 Q390.4844,25.4063 391.375,26.2344 Q392.2656,27.0469 393.8594,27.0469 Q394.7969,27.0469 395.4531,26.7969 Q395.8438,26.6406 396.2656,26.2031 Q396.5313,25.9375 396.6719,25.8594 Q396.8281,25.7813 397.0313,25.7813 Q397.3594,25.7813 397.6094,26.0469 Q397.875,26.2969 397.875,26.6406 Q397.875,26.9844 397.5313,27.3906 Q397.0313,27.9688 396.2344,28.2969 Q395.1563,28.75 393.8594,28.75 Q392.3438,28.75 391.1406,28.125 Q390.1563,27.625 389.4688,26.5625 Q388.7813,25.4844 388.7813,24.2031 L388.7813,23.0469 Q388.7813,21.7188 389.3906,20.5781 Q390.0156,19.4219 391.1094,18.8125 Q392.2031,18.1875 393.4375,18.1875 Q394.1719,18.1875 394.8125,18.3594 Q395.4688,18.5156 396.0156,18.875 Z " fill="#000000"/><text fill="#000000" font-family="sans-serif" font-size="14" lengthAdjust="spacing" textLength="28" x="413.75" y="28.7969">Nino</text><line style="stroke:#181818;stroke-width:0.5;" x1="269" x2="554" y1="39" y2="39"/><ellipse cx="279" cy="53.8105" fill="none" rx="3" ry="3" style="stroke:#038048;stroke-width:1.0;"/><text fill="#000000" font-family="sans-serif" font-size="14" lengthAdjust="spacing" textLength="89" x="288" y="58.1074">String nombre</text><ellipse cx="279" cy="72.4316" fill="none" rx="3" ry="3" style="stroke:#038048;stroke-width:1.0;"/><text fill="#000000" font-family="sans-serif" font-size="14" lengthAdjust="spacing" textLength="120" x="288" y="76.7285">String[] abecedario</text><ellipse cx="279" cy="91.0527" fill="none" rx="3" ry="3" style="stroke:#038048;stroke-width:1.0;"/><text fill="#000000" font-family="sans-serif" font-size="14" lengthAdjust="spacing" textLength="125" x="288" y="95.3496">String textopizarrain</text><ellipse cx="279" cy="109.6738" fill="none" rx="3" ry="3" style="stroke:#038048;stroke-width:1.0;"/><text fill="#000000" font-family="sans-serif" font-size="14" lengthAdjust="spacing" textLength="134" x="288" y="113.9707">String textopizarraout</text><ellipse cx="279" cy="128.2949" fill="none" rx="3" ry="3" style="stroke:#038048;stroke-width:1.0;"/><text fill="#000000" font-family="sans-serif" font-size="14" lengthAdjust="spacing" textLength="87" x="288" y="132.5918">String pizarrin</text><text fill="#000000" font-family="sans-serif" font-size="14" lengthAdjust="spacing" textLength="73" x="288" y="151.2129">Aisha aisha</text><line style="stroke:#181818;stroke-width:0.5;" x1="269" x2="554" y1="158.7266" y2="158.7266"/><ellipse cx="279" cy="173.5371" fill="#84BE84" rx="3" ry="3" style="stroke:#038048;stroke-width:1.0;"/><text fill="#000000" font-family="sans-serif" font-size="14" lengthAdjust="spacing" textLength="119" x="288" y="177.834">Nino(String nombr)</text><ellipse cx="279" cy="192.1582" fill="#84BE84" rx="3" ry="3" style="stroke:#038048;stroke-width:1.0;"/><text fill="#000000" font-family="sans-serif" font-size="14" lengthAdjust="spacing" textLength="79" x="288" y="196.4551">getNombre()</text><rect fill="#F24D5C" height="6" style="stroke:#C82930;stroke-width:1.0;" width="6" x="276" y="207.7793"/><text fill="#000000" font-family="sans-serif" font-size="14" lengthAdjust="spacing" textLength="97" x="288" y="215.0762">modificaletras()</text><ellipse cx="279" cy="229.4004" fill="#84BE84" rx="3" ry="3" style="stroke:#038048;stroke-width:1.0;"/><text fill="#000000" font-family="sans-serif" font-size="14" lengthAdjust="spacing" textLength="119" x="288" y="233.6973">getTextopizarrain()</text><ellipse cx="279" cy="248.0215" fill="#84BE84" rx="3" ry="3" style="stroke:#038048;stroke-width:1.0;"/><text fill="#000000" font-family="sans-serif" font-size="14" lengthAdjust="spacing" textLength="243" x="288" y="252.3184">setTextopizarrain(String textopizarrain)</text><ellipse cx="279" cy="266.6426" fill="#84BE84" rx="3" ry="3" style="stroke:#038048;stroke-width:1.0;"/><text fill="#000000" font-family="sans-serif" font-size="14" lengthAdjust="spacing" textLength="128" x="288" y="270.9395">getTextopizarraout()</text><ellipse cx="279" cy="285.2637" fill="#84BE84" rx="3" ry="3" style="stroke:#038048;stroke-width:1.0;"/><text fill="#000000" font-family="sans-serif" font-size="14" lengthAdjust="spacing" textLength="261" x="288" y="289.5605">setTextopizarraout(String textopizarraout)</text><ellipse cx="279" cy="303.8848" fill="#84BE84" rx="3" ry="3" style="stroke:#038048;stroke-width:1.0;"/><text fill="#000000" font-family="sans-serif" font-size="14" lengthAdjust="spacing" textLength="77" x="288" y="308.1816">getPizarrin()</text><ellipse cx="279" cy="322.5059" fill="#84BE84" rx="3" ry="3" style="stroke:#038048;stroke-width:1.0;"/><text fill="#000000" font-family="sans-serif" font-size="14" lengthAdjust="spacing" textLength="163" x="288" y="326.8027">setPizarrin(String pizarrin)</text><ellipse cx="279" cy="341.127" fill="#84BE84" rx="3" ry="3" style="stroke:#038048;stroke-width:1.0;"/><text fill="#000000" font-family="sans-serif" font-size="14" lengthAdjust="spacing" textLength="92" x="288" y="345.4238">limpiapizarrin()</text><ellipse cx="279" cy="359.748" fill="#84BE84" rx="3" ry="3" style="stroke:#038048;stroke-width:1.0;"/><text fill="#000000" font-family="sans-serif" font-size="14" lengthAdjust="spacing" textLength="196" x="288" y="364.0449">recibetexto(String textopizarrin)</text><ellipse cx="279" cy="378.3691" fill="#84BE84" rx="3" ry="3" style="stroke:#038048;stroke-width:1.0;"/><text fill="#000000" font-family="sans-serif" font-size="14" lengthAdjust="spacing" textLength="107" x="288" y="382.666">escribepizarron()</text></g><!--class ludoteca--><g id="elem_ludoteca"><rect codeLine="56" fill="#F1F1F1" height="196.9688" id="ludoteca" rx="2.5" ry="2.5" style="stroke:#181818;stroke-width:0.5;" width="309" x="7" y="515"/><ellipse cx="130.25" cy="531" fill="#ADD1B2" rx="11" ry="11" style="stroke:#181818;stroke-width:1.0;"/><path d="M133.0156,526.875 Q133.1719,526.6563 133.3594,526.5469 Q133.5469,526.4375 133.7656,526.4375 Q134.1406,526.4375 134.375,526.7031 Q134.6094,526.9531 134.6094,527.5625 L134.6094,529.0156 Q134.6094,529.625 134.375,529.8906 Q134.1406,530.1563 133.7656,530.1563 Q133.4219,530.1563 133.2188,529.9531 Q133.0156,529.7656 132.9063,529.25 Q132.8594,528.8906 132.6719,528.7031 Q132.3438,528.3281 131.7344,528.1094 Q131.125,527.8906 130.5,527.8906 Q129.7344,527.8906 129.0938,528.2188 Q128.4688,528.5469 127.9688,529.2969 Q127.4844,530.0469 127.4844,531.0781 L127.4844,532.1719 Q127.4844,533.4063 128.375,534.2344 Q129.2656,535.0469 130.8594,535.0469 Q131.7969,535.0469 132.4531,534.7969 Q132.8438,534.6406 133.2656,534.2031 Q133.5313,533.9375 133.6719,533.8594 Q133.8281,533.7813 134.0313,533.7813 Q134.3594,533.7813 134.6094,534.0469 Q134.875,534.2969 134.875,534.6406 Q134.875,534.9844 134.5313,535.3906 Q134.0313,535.9688 133.2344,536.2969 Q132.1563,536.75 130.8594,536.75 Q129.3438,536.75 128.1406,536.125 Q127.1563,535.625 126.4688,534.5625 Q125.7813,533.4844 125.7813,532.2031 L125.7813,531.0469 Q125.7813,529.7188 126.3906,528.5781 Q127.0156,527.4219 128.1094,526.8125 Q129.2031,526.1875 130.4375,526.1875 Q131.1719,526.1875 131.8125,526.3594 Q132.4688,526.5156 133.0156,526.875 Z " fill="#000000"/><text fill="#000000" font-family="sans-serif" font-size="14" lengthAdjust="spacing" textLength="54" x="150.75" y="536.7969">ludoteca</text><line style="stroke:#181818;stroke-width:0.5;" x1="8" x2="315" y1="547" y2="547"/><text fill="#000000" font-family="sans-serif" font-size="14" lengthAdjust="spacing" textLength="84" x="13" y="566.1074">Monitora lidia</text><text fill="#000000" font-family="sans-serif" font-size="14" lengthAdjust="spacing" textLength="69" x="13" y="584.7285">Aisha aysa</text><line style="stroke:#181818;stroke-width:0.5;" x1="8" x2="315" y1="592.2422" y2="592.2422"/><ellipse cx="18" cy="607.0527" fill="#84BE84" rx="3" ry="3" style="stroke:#038048;stroke-width:1.0;"/><text fill="#000000" font-family="sans-serif" font-size="14" lengthAdjust="spacing" textLength="69" x="27" y="611.3496">Ludoteca()</text><ellipse cx="18" cy="625.6738" fill="#84BE84" rx="3" ry="3" style="stroke:#038048;stroke-width:1.0;"/><text fill="#000000" font-family="sans-serif" font-size="14" lengthAdjust="spacing" textLength="98" x="27" y="629.9707">abreLudoteca()</text><rect fill="#F24D5C" height="6" style="stroke:#C82930;stroke-width:1.0;" width="6" x="15" y="641.2949"/><text fill="#000000" font-family="sans-serif" font-size="14" lengthAdjust="spacing" textLength="73" x="27" y="648.5918">cuentaNin()</text><rect fill="#F24D5C" height="6" style="stroke:#C82930;stroke-width:1.0;" width="6" x="15" y="659.916"/><text fill="#000000" font-family="sans-serif" font-size="14" lengthAdjust="spacing" textLength="144" x="27" y="667.2129">gestionaNoLlegaNino()</text><rect fill="#F24D5C" height="6" style="stroke:#C82930;stroke-width:1.0;" width="6" x="15" y="678.5371"/><text fill="#000000" font-family="sans-serif" font-size="14" lengthAdjust="spacing" textLength="283" x="27" y="685.834">gestionaLlegaNino(int numninosminuto, int k)</text><rect fill="#F24D5C" height="6" style="stroke:#C82930;stroke-width:1.0;" width="6" x="15" y="697.1582"/><text fill="#000000" font-family="sans-serif" font-size="14" lengthAdjust="spacing" textLength="168" x="27" y="704.4551">dimeNumNinosLlegan(int i)</text></g><!--reverse link Monitora to Aisha--><g id="link_Monitora_Aisha"><path d="M687.5,324.66 C687.5,368.28 687.5,401.66 687.5,449.73 " fill="none" id="Monitora-backto-Aisha" style="stroke:#181818;stroke-width:1.0;"/><polygon fill="none" points="687.5,306.66,681.5,324.66,693.5,324.66,687.5,306.66" style="stroke:#181818;stroke-width:1.0;"/></g><!--SRC=[TLJBZjGm4BpxAtmZgn3cZX3IYXFIC5ffzuOuz3XDjeKVMTj1m6Z_dRQJp3YFlKJfwhAh-f6yUuwn3nyFXrw3ZOFH7vGpXu0l0rg5JKlGUJ122AKX17bFuHaa_ebeso2_EKlHURW8KJz6JxQJFNdm_2QQ4VZ-Gy8P5RRWoOdcx9n6iB877wa5igG8MjWa8df3DcNgB5dTYJfWlBzULUrSpvnkmM60miDIAe4z13YHTLLwI4kMCGpAqnaVw5_sdsXeez_mqja-ayRKQ6mIUPfjLtCz7iDeQyDW-3UmfIzEf-1rwl3NvDDTH6tOSb6bxyADb9GlrvvRPyuUvt3PyPaJUMPkyitJsOFT48inZcqGuy0XFKMT2ov5nz9EMPzhQ8nhwISfqCYT2zMOVbf8JmrRWRikjyVPuixvXExNCxM-c6aembMjdDLaUeA-u7jKl1NvsXsDSdD6nDbYbhVlepvIY9zI_pwdFN9XCxoPk-ul6qx7GhM-OUfzpgtca0-DmKBbhPrkmM2wljn3FRGkecBlipEfYNy7yqRy3RmGnucKD845YhXH_0U9IIe57OP8piB97JLsyvTpXMyWsIZjO7A5_A4CqRsN2Vl5x9OCdWQJIyudRARJdH2l_m40]--></g></svg>